<svg xmlns="http://www.w3.org/2000/svg" viewBox="0 0 20 20"><path fill="#231f20" d="M10 9.4c-.4 0-.7.3-.7.7v4.4c0 .4.3.7.7.7.2 0 .4 0 .5-.2.1-.1.2-.3.2-.5v-4.4c0-.4-.3-.7-.7-.7m-3.5.5c0-.4-.4-.6-.8-.5-.2 0-.3.1-.4.3s-.1.3-.1.5l.9 4.4c0 .3.4.5.7.5h.1c.4 0 .6-.5.5-.8z"/><path fill="#231f20" d="M18.5 6.5h-2.9l-2.4-4.1c-.2-.3-.6-.4-.9-.3-.3.2-.5.6-.3.9l2 3.4H6l2-3.5c.2-.3 0-.7-.3-.9s-.7 0-.9.2L4.5 6.3H1.2c-.3 0-.6.3-.8.6s-.3.6-.2 1l1.6 7.8c.3 1.2 1.3 2.1 2.6 2.1h11.1c1.2 0 2.3-.9 2.5-2.1l1.6-7.8v-.2c0-.7-.6-1.3-1.3-1.3Zm-2.9 10.1H4.4c-.6 0-1.1-.4-1.2-1L1.5 7.9h16.8l-1.6 7.7c-.1.6-.6 1-1.2 1Zm-8.5-14"/><path fill="#231f20" d="M14.3 9.4c-.4 0-.7.1-.8.5l-.9 4.4c0 .5.3.8.7.8.3 0 .6-.2.7-.5l.9-4.4c0-.4-.2-.7-.5-.8Z"/></svg>