<svg xmlns="http://www.w3.org/2000/svg" viewBox="0 0 50 50"><path d="M19.8 9.1h13.7v2.6H19.8V9.1zM37 20.9c-3.3 0-6 2.6-6 6 0 3.3 2.6 6 6 6 3.3 0 6-2.7 6-6-.1-3.3-2.7-6-6-6zm3.7 6c0 2.1-1.7 3.6-3.7 3.6-2.1 0-3.6-1.7-3.6-3.6 0-2.1 1.7-3.6 3.6-3.6 1 0 2 .4 2.7 1.1.7.6 1 1.5 1 2.5zM7.9 18.6h7.4v2.6H7.9v-2.6zm17 11.3-.2-.5H6.3c-1 0-1.7-.7-1.7-1.8V7.1c-.1-.9.8-1.7 1.7-1.7h28.6c1 0 1.8.7 1.8 1.8v7.6h.7c.4 0 1 0 1.3.1l.7.2v-8c0-2.4-2.2-4.5-4.7-4.5H6.3c-2.5 0-4.5 2.1-4.5 4.5v20.6c0 2.5 2.1 4.5 4.5 4.5h19.4l-.3-.9c-.3-.4-.4-.9-.5-1.4zM15.5 8.7c.2-.3.1-.7-.1-.9-.3-.3-.6-.3-.8-.3H8.5c-.3-.1-.5 0-.7.1-.4.2-.5.7-.5 1v6c0 .3.1.5.2.7v.1c.3.3.6.3.8.3h6c.3 0 .5-.1.7-.2h.1c.3-.3.3-.6.3-.8.1 0 .1-6 .1-6zm-2.1 1v3.7H9.7V9.7h3.7zm32.9 11.6c-.9-1.6-2.4-2.8-4.1-3.7-1.6-.8-3.3-1.2-5.2-1.2-1.7 0-3.4.4-5.2 1.2-1.9.8-3.1 2.3-4.1 3.7-1.2 1.8-1.9 3.9-1.9 6.2s.6 4.3 1.9 6.2L37 47.5l9.3-13.8c1.2-1.8 1.9-3.9 1.9-6.2.1-2.3-.7-4.4-1.9-6.2zm-1.9 11.1L37 43.5l-7.4-11.1c-2.1-3.1-2.1-7.1 0-10.1 1.8-2.5 4.4-3.9 7.4-3.9s5.8 1.6 7.4 3.9c2 3.1 2 6.9 0 10.1zM7.9 23h7.4v2.6H7.9V23z"/></svg>