<svg xmlns="http://www.w3.org/2000/svg" viewBox="0 0 25 25"><path fill="#fff" d="M23.6 4.8H10.2C9.8 3.4 8.5 2.3 7 2.3S4.2 3.4 3.9 4.8H1.4c-.4 0-.7.3-.7.7 0 .5.3.8.7.8h2.5C4.2 7.7 5.5 8.8 7 8.8s2.8-1.1 3.1-2.5h13.4c.4 0 .8-.3.8-.8 0-.4-.3-.7-.7-.7M7 7.3c-.7 0-1.3-.4-1.6-1-.1-.2-.1-.5-.1-.8s0-.5.2-.7c.3-.6.9-1 1.6-1s1.3.4 1.6 1c0 .2.1.5.1.7s-.1.6-.2.8c-.3.6-.9 1-1.6 1m16.6 4.5h-2.4c-.3-1.4-1.6-2.5-3.1-2.5s-2.8 1.1-3.1 2.5H1.4c-.4 0-.8.3-.8.8 0 .4.3.8.8.8h13.5c.3 1.4 1.6 2.5 3.1 2.5s2.8-1.1 3.1-2.5h2.4c.4 0 .8-.3.8-.8s-.3-.8-.7-.8m-4 1.4c-.3.6-.9 1-1.6 1s-1.3-.4-1.6-1c-.1-.2-.2-.5-.2-.8s.1-.5.2-.8c.3-.6.9-1 1.6-1s1.3.4 1.6 1c.1.2.2.5.2.8 0 .4-.1.6-.2.8m4 5.5H11.8c-.3-1.4-1.6-2.5-3.1-2.5s-2.8 1.1-3.1 2.5H1.4c-.4 0-.8.3-.8.8 0 .4.3.8.8.8h4.1c.3 1.4 1.6 2.5 3.1 2.5s2.8-1.1 3.1-2.5h11.8c.4 0 .8-.3.8-.8s-.3-.8-.7-.8m-13.4 1.5c-.3.6-.9 1-1.5 1-.7 0-1.3-.4-1.6-1-.1-.2-.2-.5-.2-.8s.1-.5.2-.8c.3-.6.9-1 1.6-1s1.3.4 1.5 1c.1.2.2.5.2.8-.1.3-.1.6-.2.8"/></svg>