<svg xmlns="http://www.w3.org/2000/svg" viewBox="0 0 50 50"><path fill="none" stroke="#000" stroke-linecap="round" stroke-linejoin="round" stroke-width="1.5" d="M22.4 36.6c-4-1.9-7.1-5.1-9-9h0c.6 0 2-.7 1.9-1.8L14.1 19c-.1-.6-.7-1.1-1.3-1.1H6c-.6 0-1.1.7-1 1.3C5 33.5 16.5 45 30.8 45c.6.1 1.3-.4 1.3-1v-6.8c0-.6-.5-1.2-1.1-1.3l-6.8-1.2c-1.1 0-1.8 1.3-1.8 1.9M25 5c11 0 20 9 20 20"/><path fill="none" stroke="#000" stroke-linecap="round" stroke-linejoin="round" stroke-width="1.5" d="M25 11.5c7.5 0 13.5 6.1 13.5 13.5M25 17.9c3.9 0 7.1 3.2 7.1 7.1"/></svg>