<svg xmlns="http://www.w3.org/2000/svg" viewBox="0 0 50 50"><path fill="none" stroke="#000" stroke-linecap="round" stroke-linejoin="round" stroke-width="1.5" d="M37.6 13.2C36.6 7.1 31.4 2.5 25 2.5S13.4 7.1 12.4 13.2"/><path fill="none" stroke="#000" stroke-linecap="round" stroke-linejoin="round" stroke-width="1.5" d="M12.4 13.2c-1.1 0-1.9.9-1.9 1.9v2.8c0 1.1.9 1.9 1.9 1.9h0c1.1 0 1.9-.9 1.9-1.9v-2.8c0-1.1-.9-1.9-1.9-1.9m25.2 0c-1.1 0-1.9.9-1.9 1.9v2.8c0 1.1.9 1.9 1.9 1.9h0c1.1 0 1.9-.9 1.9-1.9v-2.8c0-1.1-.9-1.9-1.9-1.9m-25.2 6.7v.4c0 1.3 1.1 2.3 2.3 2.3H23"/><circle cx="25" cy="22.6" r="1.9" fill="none" stroke="#000" stroke-linecap="round" stroke-linejoin="round" stroke-width="1.5"/><rect width="15.9" height="19.6" x="17.1" y="7.9" fill="none" stroke="#000" stroke-linecap="round" stroke-linejoin="round" stroke-width="1.5" rx="7.6" ry="7.6" transform="rotate(180 25 17.65)"/><path fill="none" stroke="#000" stroke-linecap="round" stroke-linejoin="round" stroke-width="1.5" d="M43.7 47.5v-4.9c0-5.8-4.7-10.5-10.5-10.5H16.7c-5.8 0-10.5 4.7-10.5 10.5v4.9"/></svg>