<svg xmlns="http://www.w3.org/2000/svg" viewBox="0 0 50 50"><path d="M3 7c-1.645 0-3 1.355-3 3v32c0 1.645 1.355 3 3 3h7v-2h2v2h26v-2h2v2h7c1.645 0 3-1.355 3-3V14c0-1.645-1.355-3-3-3H26v-1c0-1.645-1.355-3-3-3Zm0 2h20c.563 0 1 .438 1 1v3h23c.563 0 1 .438 1 1v28c0 .563-.438 1-1 1h-5v-2h-6v2H14v-2H8v2H3c-.563 0-1-.438-1-1V10c0-.563.438-1 1-1Zm10.469 9c-3.36.063-3.766 2.617-3.031 5.563-.13.082-.336.375-.282.843.102.871.438 1.074.656 1.094.083.813.598 1.785.876 1.938 0 .578.023 1.019-.032 1.656C10.992 30.949 6.207 30.422 6 34h15c-.207-3.578-4.96-3.05-5.625-4.906-.055-.637-.031-1.078-.031-1.657.277-.152.758-1.125.844-1.937.218-.02.554-.223.656-1.094.054-.468-.153-.73-.282-.812.352-1.106 1.075-4.551-1.375-4.907-.253-.46-.878-.687-1.718-.687ZM26 22v2h18v-2Zm0 5v2h18v-2Zm0 5v2h18v-2Z"/></svg>