<?xml version="1.0" encoding="UTF-8"?>
<svg id="Layer_1" xmlns="http://www.w3.org/2000/svg" version="1.1" viewBox="0 0 24 24">
  <!-- Generator: Adobe Illustrator 29.7.1, SVG Export Plug-In . SVG Version: 2.1.1 Build 8)  -->
  <path d="M11.5,2C7.1,2,3.5,5.6,3.5,10v1.9c-.6.5-1,1.3-1,2.1,0,1.2.9,2.2,1.9,2.6,1.3,3.1,3.9,5.4,7.1,5.4h3v-2h-3c-2.3,0-4.3-1.7-5.3-4.4l-.2-.6h-.6c-.5-.1-.9-.6-.9-1.1,0-.4.2-.7.5-.9l.5-.3v-1.9c0-.6.4-1,1-1h10c.6,0,1,.4,1,1v5h-4.1c-.2-.6-.8-1-1.4-1-.8,0-1.5.7-1.5,1.5,0,.8.6,1.4,1.4,1.5,0,0,0,0,.1,0h7.5c1.1,0,2-.9,2-2v-2c0-1.1-.9-2-2-2v-2c0-4.4-3.6-8-8-8ZM11.5,4c2.6,0,4.9,1.6,5.7,4.1-.2,0-.5,0-.7,0H6.5c-.2,0-.5,0-.7,0,.8-2.4,3.1-4.1,5.7-4.1Z"/>
</svg>