<?xml version="1.0" encoding="UTF-8"?>
<svg id="Layer_1" xmlns="http://www.w3.org/2000/svg" version="1.1" viewBox="0 0 100 100">
  <!-- Generator: Adobe Illustrator 29.7.1, SVG Export Plug-In . SVG Version: 2.1.1 Build 8)  -->
  <circle cx="50" cy="50" r="50" style="fill: #219fd1; opacity: 0;"/>
  <circle cx="50" cy="50" r="36.6" style="fill: #219fd1; opacity: .1;"/>
  <circle cx="50" cy="50" r="23.5" style="fill: #219fd1; opacity: .2;"/>
  <path d="M32.8,21.9c-.8,0-1.6-.3-2.2-.8-.7-.6-1.1-1.4-1.1-2.3,0-.9.2-1.7.8-2.4.6-.7,1.4-1.1,2.3-1.1.9,0,1.7.2,2.4.8,1.4,1.2,1.5,3.3.3,4.7-.6.7-1.4,1.1-2.3,1.1,0,0-.1,0-.2,0ZM32.8,16.4s0,0-.1,0c-.6,0-1.1.3-1.5.8-.4.4-.6,1-.5,1.6,0,.6.3,1.1.8,1.5.4.4,1,.6,1.6.5.6,0,1.1-.3,1.5-.8.8-.9.7-2.3-.2-3.1h0c-.4-.4-.9-.6-1.5-.6Z" style="fill: #219fd1; opacity: .9;"/>
  <path d="M88.7,45.1c-1.7,0-3.1-1.4-3.1-3.1s1.4-3.1,3.1-3.1,3.1,1.4,3.1,3.1-1.4,3.1-3.1,3.1ZM88.7,39.9c-1.1,0-2,.9-2,2s.9,2,2,2,2-.9,2-2-.9-2-2-2Z" style="fill: #219fd1; opacity: .8;"/>
  <path d="M70,21.5c-1.2,0-2.1-1-2.1-2.1s1-2.1,2.1-2.1,2.1,1,2.1,2.1-1,2.1-2.1,2.1ZM70,18.3c-.6,0-1,.5-1,1s.5,1,1,1,1-.5,1-1-.5-1-1-1Z" style="fill: #219fd1; opacity: .7;"/>
  <path d="M39,80.2c-1.2,0-2.1-1-2.1-2.1s1-2.1,2.1-2.1,2.1,1,2.1,2.1-1,2.1-2.1,2.1ZM39,77c-.6,0-1,.5-1,1s.5,1,1,1,1-.5,1-1-.5-1-1-1Z" style="fill: #219fd1; opacity: .9;"/>
  <path d="M13.6,60.2c-1.7,0-3.2-1-3.9-2.6-1-2.2,0-4.7,2.2-5.7,1.1-.5,2.2-.5,3.3,0,1.1.4,1.9,1.2,2.4,2.3h0c1,2.2,0,4.7-2.2,5.7-.6.3-1.2.4-1.7.4ZM13.6,52.7c-.4,0-.9,0-1.3.3-1.6.7-2.3,2.6-1.6,4.2.7,1.6,2.6,2.3,4.2,1.6,1.6-.7,2.3-2.6,1.6-4.2h0c-.5-1.2-1.7-1.9-2.9-1.9Z" style="fill: #219fd1; opacity: .6;"/>
  <g>
    <g>
      <g>
        <path d="M62.6,74.4h-25.2c-1,0-1.8-.8-1.8-1.9l-2.9-21.4c0-1.2.9-2.3,2-2.3h30.5c1.2,0,2.1,1,2,2.3l-2.9,21.4c0,1.1-.9,1.9-1.8,1.9Z" style="fill: #fff;"/>
        <path d="M62.6,75.2h-25.2c-1.4,0-2.6-1.2-2.7-2.7l-2.9-21.4c0-.8.3-1.7.8-2.3.5-.6,1.3-.9,2.1-.9h30.5c.8,0,1.5.3,2.1.9.6.6.9,1.4.8,2.3h0c0,0-2.9,21.4-2.9,21.4,0,1.5-1.3,2.7-2.7,2.7ZM33.5,51l2.9,21.4c0,.6.5,1.1,1,1.1h25.2c.5,0,1-.5,1-1.1h0c0,0,2.9-21.4,2.9-21.4,0-.4-.1-.7-.4-1-.2-.2-.5-.4-.9-.4h-30.5c-.3,0-.6.1-.9.4-.3.3-.4.6-.4,1Z" style="fill: #303030;"/>
      </g>
      <path d="M39.5,74.1s-3.3-19.2-2.7-19.5c.5-.3,29.8-.2,29.8-.2.5-.6.7-3,.7-3l-34.6.5,3.2,21.6,1.4.6h2.2Z" style="opacity: 0;"/>
      <path d="M53,65.2c-.1,0-.2,0-.3,0-2.6-1.8-5.1,0-5.1,0-.2.2-.6.1-.8,0-.2-.2-.1-.6,0-.8,0,0,3.1-2.3,6.4,0,.2.2.3.5.1.8-.1.2-.3.2-.4.2Z" style="fill: #303030;"/>
      <path d="M62.6,75.2h-25.2c-1.4,0-2.6-1.2-2.7-2.7l-2.9-21.4c0-.8.3-1.7.8-2.3.5-.6,1.3-.9,2.1-.9h30.5c.8,0,1.5.3,2.1.9.6.6.9,1.4.8,2.3h0c0,0-2.9,21.4-2.9,21.4,0,1.5-1.3,2.7-2.7,2.7ZM33.5,51l2.9,21.4c0,.6.5,1.1,1,1.1h25.2c.5,0,1-.5,1-1.1h0c0,0,2.9-21.4,2.9-21.4,0-.4-.1-.7-.4-1-.2-.2-.5-.4-.9-.4h-30.5c-.3,0-.6.1-.9.4-.3.3-.4.6-.4,1Z" style="fill: #303030;"/>
      <g>
        <path d="M33.7,51.4h34.1c1.2,0,2.2-1.1,2.2-2.5v-3.3c0-1.4-1-2.5-2.2-2.5h-34.4" style="fill: #219fd1;"/>
        <g>
          <path d="M34.1,43.2h-1.8c-1.2,0-2.2,1.1-2.2,2.5v3.3c0,1.4,1,2.5,2.2,2.5h3.1" style="fill: #1892b7;"/>
          <path d="M67.7,42.4h-35.5c-1.7,0-3,1.5-3,3.3v3.3c0,1.8,1.4,3.3,3,3.3h35.5c1.7,0,3-1.5,3-3.3v-3.3c0-1.8-1.4-3.3-3-3.3ZM69.1,49c0,.9-.6,1.7-1.4,1.7h-35.5c-.8,0-1.4-.7-1.4-1.7v-3.3c0-.9.6-1.7,1.4-1.7h35.5c.8,0,1.4.7,1.4,1.7v3.3Z" style="fill: #303030;"/>
        </g>
      </g>
      <g>
        <g>
          <ellipse cx="37.5" cy="47.1" rx=".9" ry=".9" style="fill: #303030;"/>
          <ellipse cx="62.4" cy="47" rx=".9" ry=".8" style="fill: #303030;"/>
        </g>
        <path d="M36.6,47.2c0-.5,0-.9,0-1.4,0-8.1,6-14.6,13.4-14.6s13.4,6.6,13.4,14.6,0,.8,0,1.3h-1.6c0-.5,0-.9,0-1.3,0-7.2-5.3-13-11.7-13s-11.7,5.8-11.7,13,0,.9,0,1.3h-1.6Z" style="fill: #303030;"/>
      </g>
    </g>
    <g>
      <circle cx="44.4" cy="59.7" r="1" style="fill: #303030;"/>
      <circle cx="55.6" cy="59.7" r="1" style="fill: #303030;"/>
    </g>
  </g>
  <g style="opacity: .8;">
    <path d="M73.9,74.1h-4c-.3,0-.5-.2-.5-.5s.2-.5.5-.5h4c.3,0,.5.2.5.5s-.2.5-.5.5Z" style="fill: #219fd1;"/>
    <path d="M71.9,76c-.3,0-.5-.2-.5-.5v-4c0-.3.2-.5.5-.5s.5.2.5.5v4c0,.3-.2.5-.5.5Z" style="fill: #219fd1;"/>
  </g>
  <g style="opacity: .3;">
    <path d="M24.1,34.1h-2.4c-.3,0-.5-.2-.5-.5s.2-.5.5-.5h2.4c.3,0,.5.2.5.5s-.2.5-.5.5Z" style="fill: #219fd1;"/>
    <path d="M22.9,35.3c-.3,0-.5-.2-.5-.5v-2.4c0-.3.2-.5.5-.5s.5.2.5.5v2.4c0,.3-.2.5-.5.5Z" style="fill: #219fd1;"/>
  </g>
  <g>
    <path d="M33.4,36.6c-.2,0-.4,0-.6-.2l-4.5-4.5c-.3-.3-.3-.8,0-1.2.3-.3.8-.3,1.2,0l4.5,4.5c.3.3.3.8,0,1.2-.2.2-.4.2-.6.2Z" style="fill: #303030;"/>
    <path d="M66.6,36.8c-.2,0-.4,0-.6-.2-.3-.3-.3-.8,0-1.2l4.5-4.5c.3-.3.8-.3,1.2,0,.3.3.3.8,0,1.2l-4.5,4.5c-.2.2-.4.2-.6.2Z" style="fill: #303030;"/>
  </g>
  <path d="M49.8,29.3c-.5,0-.8-.4-.8-.8v-7.5c0-.5.4-.8.8-.8s.8.4.8.8v7.5c0,.5-.4.8-.8.8Z" style="fill: #303030;"/>
</svg>