<svg xmlns="http://www.w3.org/2000/svg" viewBox="0 0 50 50"><circle cx="25" cy="25" r="22.5" fill="none" stroke="#055941" stroke-linecap="round" stroke-linejoin="round"/><path fill="none" stroke="#055941" stroke-linecap="round" stroke-linejoin="round" d="m13.2 36.8-4.1 4.1M40.9 9.1l-4.2 4.2M25 20.2v24.1M21.8 13v-.9c0-3.6 3.2-6.4 3.2-6.4s3.2 2.9 3.2 6.4v.8m-5.5 22.2c2.5 2.5 2.3 6.8 2.3 6.8s-4.3.2-6.8-2.3-2.3-6.8-2.3-6.8 4.3-.2 6.8 2.3"/><path fill="none" stroke="#055941" stroke-linecap="round" stroke-linejoin="round" d="M27.3 35.1c-2.5 2.5-2.3 6.8-2.3 6.8s4.3.2 6.8-2.3 2.3-6.8 2.3-6.8-4.3-.2-6.8 2.3m-10-5.5c-1.5-2.5-1.4-5.7-1.4-5.7s4.3-.2 6.8 2.3c2.1 2.1 2.3 5.6 2.3 6.6m7.7-3.2c1.5-2.5 1.4-5.7 1.4-5.7s-4.3-.2-6.8 2.3c-2.1 2.1-2.3 5.6-2.3 6.6m-7.7-12c-1.5-2.5-1.4-5.7-1.4-5.7s4.3-.2 6.8 2.3S25 23 25 24"/><path fill="none" stroke="#055941" stroke-linecap="round" stroke-linejoin="round" d="M32.7 20.8c1.5-2.5 1.4-5.7 1.4-5.7s-4.3-.2-6.8 2.3C25.2 19.5 25 23 25 24"/></svg>