<svg xmlns="http://www.w3.org/2000/svg" viewBox="0 0 200 110.4"><path fill="#44ac33" fill-rule="evenodd" d="M89.2 11.3c.2-.6 1-.4.9-1s-1-.4-.8-1c.2-.4 1-.1 1.3 0 .3 0 1.2.2.8.7-.3.3-1 .5-.6 1.1.3.4 1.4.2 1.9.5.3.2.2.4 0 .6-.5.4-.9.4-.6 1.1.3.4 2.3.1 2.1.9-.1.4-1.1.1-1.4 0-.5 0-2-.6-2.1.3.2.7.7.5 1.2.7l2.8.5c.5 0 1 .1.9.7-.7.5-1.1-.5-1.7.4.1.6.3.6.7.7.9.2 3 .3 2.4 1-.4.3-1.4 0-1.9-.1h-.5l-3.2-.6c-.4 0-.5.4-.5.7.1.5.9.5 1.2.5l3.1.6 1.8.3c.4 0 1.7.1 1.3.8-.3.4-1.7 0-2.2-.2-.2 0-.9-.2-1.1-.2-.5 0-.5.6-.3 1 .3.2.9.2 1.4.3l2.7.5c.3 0 1.3.2.9.7-.3.4-.8.1-1 0l-3.1-.6c-.8-.1-1.4-.2-2.1-.4-.8-.3-1.6.8-.2 1.1s2.7.5 4.1.7l3.2.6c1.2.3.9 1 0 .8-.6-.1-3.7-.8-4.1-.7-.3 0-.5.4-.5.6 0 .4.4.4.6.5l2.5.4c.3 0 .6.1.8.1l1.6.3c.7.1 1.2 0 1.3.7-1 .7-2-.8-2.8.4.3.8 1.3.6 2 .8l1.5.3c1.2.2.7.8.3.9-.4 0-1.7-.3-2.2-.4l-2.9-.5c-.6-.2-1.2.2-.7.9.2.1.7.2 1 .2.4 0 .7.1 1.1.2.6.1 1.3.3 2 .4s1.3.2 2.1.4c.9.2 1.7.1 1.6.8-.4.3-.6.2-.9 0-.3 0-.5 0-.8-.1-.5 0-2.8-.6-3.2-.5-.7.3-.2.9.5 1 1.1.2 2.1.4 3.1.6h.8c.8.3 2 .3 2.1 1-.4.3-.5.3-.8.2-1-.3-2-.4-3-.5l-6.7-1.2c-.6-.1-1 0-1.1-.7.5-.3.7-.1 1.2 0 .4 0 .7.1 1.2.2.4 0 2.4.6 1.8-.6-.3-.2-.5-.3-.9-.3-1-.1-2-.4-3.1-.6h-.4c-.3 0-.5 0-.9-.2-.5-.1-1.4 0-1.5-.7.5-.4.6-.2 1.1-.2l1 .2c.6 0 1.4.5 2.1 0 .1-.2.1-.6-.2-.8s-2.2-.4-2.5-.5l-2.5-.4c-.8-.2-.6-1 .5-.7l2 .4c1 .2 2 .3 2.9.5.4.1 1.6.5 2 .1.6-1-1.2-1.1-1.7-1.1l-6.1-1.1c-.5-.1-.9 0-1.1-.4-.1-.8 1.7-.2 2.6-.1.4 0 1 .2 1.4.3.6.1 1 0 1.1-.5-.2-.6-.8-.5-1.3-.6s-.9-.2-1.5-.3c-.5 0-1-.2-1.5-.3-.3 0-1.4-.1-1.1-.7.2-.4.6-.3.9-.2h.3c.6 0 .9-.6.4-1-.2-.2-.4-.1-.6-.2-.9-.2-1.5 0-1.6-.8.5-.4.8-.2 1.3-.1.8.1 1.6.4 2.4.4.5 0 .9-.3.6-.7-.2-.4-1.7-.6-2.3-.7-.4 0-2.2-.2-2.3-.6 0-.8 1.1-.5.7-1.3-.2-.4-1.3-.4-.9-.9.3-.3.8-.1 1.1 0l1.1.2c.3 0 1 .2 1.1.2.6 0 .7-.5.4-1-.4-.2-1.6-.3-2.1-.5-.9-.2-2.1-.2-1.8-.8.2-.5 1.1-.2.8-1.1-.4-.3-.4-.2-.8-.3-.4 0-.5-.5-.2-.7.4-.3 1.4.3 1.8.1.4-.1.5-.5.3-.8-.3-.7-1.9 0-2.2-.9Zm13.6 23.3c-.4.4-.8.2-1.3.1-.3 0-1.1-.1-.8-.6.2-.4.9-.2 1.2-.1.4 0 .9 0 .9.6"/><path fill="#99d817" fill-rule="evenodd" d="M93.9 12.7c-.3-.3 0-.8 0-1.3 0-.4.3-.9 0-1.4-1-.3-.7.4-1.2.7-.8 0-.4-1-.3-1.5 0-.3.1-1.8.8-1.4.4.3 0 .8.3 1.2.1.1.4.2.6.2s.3-.3.4-.4c.2-.4.9-.6.6 1 0 .4-.4 1.5 0 1.8.3.1.6.2.8-.2.3-.4 0-1.5.5-1.7.4-.2.6.3.5.7 0 .2-.6 1.7.4 1.5.9-.2.2-1.4 1.1-1.3l.3.2c.1.3-.1 1.1-.2 1.4l-.3 1.6c0 .3-.3.8 0 1.1.4.3.8-.1.9-.5 0-.4.1-.7.2-1.1 0-.3.1-.7.2-1.1 0-.3 0-1 .6-.8s0 .7.4 1.3c.2.2.5.2.7 0 .3-.2 0-.3.6-.5.4.3.4.4.3.9l-.4 2.1c0 .4-.1.6-.2 1 0 .2 0 .3-.1.5l-.3 2.1c0 .2-.1.3-.1.5 0 .5.1.7.5.8.7 0 .7-1.3.8-1.7.1-1.2.5-2.5.7-3.8 0-.4.1-.6.2-1 0-.4.2-.6.7-.5.5.8-.7 2.8.4 2.7.4 0 .5-.3.5-.5.3-1.8 1-1 .9-.4-.1.9-.4 1.9-.5 2.8 0 .5-.1.9-.3 1.4-.2.6.1 1 .8.8.3-.4.4-1.8.6-2.4.1-.4.2-.8.2-1.3s0-.8.7-.9c.4.4.2.7.1 1.1l-1 5.8c0 .5-.5 2-.2 2.3 1 .5 1-.9 1.1-1.4l.4-2.1c.1-1 .4-2.1.6-3.1 0-.3.1-1 .6-.7.5.2.1 1 0 1.9-.1.6-.2 1.2-.4 1.9l-.2 1c-.2 1.9-.7 3.8-1 5.7 0 .4 0 .8.3.9.7.3.8-1.1.9-1.5.1-.7.2-1.2.3-1.9.2-1.2.5-2.6.7-3.8.3-2 .9-1.1.9-.9 0 .4-.5 3.3-.6 3.9l-.2.9c-.3 1.6.7 1.2.8.9.3-.5.3-2.9 1-2.4.4.3-.2 2.6-.3 3.3 0 .3 0 .5-.1.8 0 .4-.2 2.4-.9 1.9-.3-.2 0-1.1 0-1.5.1-.5.3-1.1-.5-1.2-.5.2-.5.6-.6 1 0 .4-.1.8-.2 1.2-.2.7-.2 1.7-.4 2.4-.2.5-.9.4-.8-.3 0-.5.7-2.2-.2-2.2-.7 0-.4.7-1.1.6-.4-.3-.2-.8-.1-1.2 0-.5.1-.8.2-1.2 0-.4.6-2.1-.2-2.2-.7.1-.6.9-.7 1.3-.2.6 0 1.1-.7 1.1-.4-.6 0-1.2 0-1.8l.7-4.3c0-.4.2-.5-.1-1-.7-.3-.8.3-.9.9-.2 1.2-.4 2.5-.7 3.7 0 .4-.1.4-.5.4-.4-.5-.3-.6-.1-1.1l1.2-6.9c.1-.5.3-.7-.2-1.1-.9 0-.8.7-.9 1.5l-.4 1.9c-.2.9-.3 1.9-.5 2.8-.1.9-1 .8-.8 0l.3-1.4c.1-.5-.3-1.1-.8-.7-.3.2 0 .3-.6.5-.4-.3-.3-.5-.2-.9l.5-2.7c0-.3.1-.6.2-.9l.5-2.7c.2-.8-.7-1.1-1-.2-.2.6-.5 2.7-.7 3.6 0 .4-.1 1.6-.7 1.6-.6-.1-.2-1.1-.2-1.5s.4-1.4.2-1.6c-.4-.4-.8-.3-1 .2s0 .9-.7 1c-.4-.5-.3-.6-.2-1l.5-2.8c0-.4-.1-.8-.5-.8-.5 0-.5.4-.6.7 0 .4-.2 1.7-.6 1.7-.8-.2-.3-1.3-.2-1.9 0-.4-.3-.7-.7-.7s-.4.7-1 .4Zm-2.1-4.8c-.3.3-.6.2-1 .2-.3 0-.9 0-.8-.6.1-.4.8-.2 1-.2.5 0 .7 0 .7.6Z"/><path fill="#44ac33" fill-rule="evenodd" d="M134 4.1c-.2-.6-1-.4-.9-1s1-.4.8-1c-.2-.4-1-.1-1.3 0-.3 0-1.2.2-.8.7.3.3 1 .5.6 1.1-.3.4-1.4.2-1.9.5-.3.2-.2.4 0 .6.5.4.9.4.6 1.1-.4.4-2.3.1-2.1.9.1.4 1.1.1 1.4 0 .5 0 2-.6 2.1.3-.2.7-.7.5-1.2.7l-2.8.5c-.5 0-1 .1-.9.7.7.5 1.1-.5 1.7.4-.1.6-.3.6-.7.7-.9.2-2.9.3-2.4 1 .4.3 1.4 0 1.9-.1h.5l3.2-.6c.4 0 .5.4.5.7-.1.5-.9.5-1.2.5l-3.2.6-1.8.3c-.4 0-1.7.1-1.3.8.3.4 1.7 0 2.2-.2.2 0 .9-.2 1.1-.2.5 0 .5.6.3 1-.3.2-.9.2-1.4.3l-2.7.5c-.3 0-1.3.2-.9.7.3.4.8.1 1 0l3.1-.6c.8-.1 1.4-.2 2.1-.4.8-.3 1.6.8.2 1.1s-2.7.5-4.2.8l-3.1.6c-1.2.3-.9 1 0 .8.6-.1 3.7-.8 4.1-.7.3 0 .5.4.5.6 0 .4-.4.4-.6.5l-2.5.4c-.3 0-.6.1-.8.1l-1.6.3c-.7.1-1.2 0-1.3.7 1 .7 2-.8 2.8.4-.3.8-1.3.6-2 .8l-1.5.3c-1.2.2-.7.8-.3.9.4 0 1.7-.3 2.2-.4l2.9-.5c.6-.2 1.2.2.7.9-.2.1-.7.2-1 .3-.4 0-.7.1-1.1.2-.6.1-1.3.3-2 .4s-1.3.2-2.1.4c-.9.2-1.7.1-1.6.9.4.3.6.2.9 0 .3 0 .5 0 .8-.1.5 0 2.8-.6 3.2-.5.7.3.3.9-.4 1-1.1.2-2.1.4-3.1.6h-.8c-.8.3-2 .3-2.1 1 .4.3.5.3.8.2 1-.3 2-.4 3-.5l6.7-1.2c.6-.1 1 0 1.1-.7-.5-.3-.7-.1-1.2 0-.4 0-.7.1-1.2.2-.4 0-2.4.6-1.8-.6.3-.2.5-.3.9-.3 1-.1 2-.4 3.1-.6h.4c.3 0 .5 0 .9-.2.5-.1 1.4 0 1.5-.7-.5-.4-.6-.2-1.1-.1l-1 .2c-.6 0-1.4.5-2.1 0-.1-.2-.1-.6.2-.8s2.2-.4 2.5-.5l2.5-.4c.8-.2.6-1-.5-.7l-2 .4c-1 .2-2 .3-2.9.5-.4.1-1.6.5-2 .1-.6-.9 1.2-1.1 1.7-1.1l6.1-1.1c.5-.1.9 0 1.1-.4.1-.8-1.7-.2-2.6-.1-.4 0-1 .2-1.4.3-.6.2-1 0-1.1-.5.2-.6.8-.5 1.3-.6s.9-.2 1.5-.3c.5 0 1-.2 1.5-.3.3 0 1.4-.1 1.1-.7-.2-.4-.6-.3-1-.2h-.3c-.6 0-.9-.6-.4-1 .2-.1.4-.1.6-.2.9-.2 1.5 0 1.6-.7-.5-.4-.8-.2-1.3-.1-.8.1-1.7.4-2.4.5-.5 0-.9-.3-.6-.7.2-.4 1.7-.6 2.3-.7.4 0 2.2-.3 2.3-.6 0-.8-1.1-.5-.7-1.3.2-.4 1.3-.4.9-.9-.3-.3-.8-.1-1.1 0l-1.1.2c-.3 0-1 .2-1.1.2-.6 0-.7-.5-.4-.9.4-.3 1.6-.3 2.1-.5.9-.2 2.1-.1 1.8-.8-.2-.5-1.2-.2-.8-1.1.4-.3.4-.2.8-.3.4 0 .5-.5.2-.7-.4-.3-1.4.3-1.8.1-.3-.1-.4-.5-.3-.8.3-.7 2 0 2.2-.9Zm-13.6 23.3c.5.4.8.2 1.3.1.3 0 1.1-.1.8-.6-.2-.4-.9-.2-1.2-.1-.4 0-.9 0-.9.6"/><path fill="#99d817" fill-rule="evenodd" d="M129.3 5.5c.3-.3 0-.8 0-1.3 0-.4-.3-.9 0-1.4 1-.3.7.4 1.2.7.8 0 .4-1 .3-1.5 0-.3-.1-1.8-.8-1.4-.4.3 0 .8-.3 1.2-.1.1-.4.2-.6.2-.3 0-.3-.3-.4-.4-.2-.4-.9-.6-.6 1 0 .4.4 1.5 0 1.8-.3.1-.6.2-.8-.2-.3-.4 0-1.5-.5-1.7-.4-.2-.6.3-.5.7 0 .2.6 1.7-.4 1.5-.9-.2-.2-1.4-1.1-1.3l-.3.2c-.1.3.1 1.1.2 1.4l.3 1.6c0 .3.3.8 0 1.1-.4.3-.8-.1-.9-.5 0-.4-.1-.7-.2-1.1 0-.3-.1-.7-.2-1.1 0-.3 0-1-.6-.8s0 .7-.4 1.3c-.2.2-.5.2-.7 0-.3-.2 0-.3-.6-.5-.4.3-.4.4-.3.9l.4 2.1c0 .4.1.6.2 1 0 .2 0 .3.1.5l.3 2.1c0 .2.1.3.1.5 0 .5-.1.7-.5.8-.7 0-.7-1.3-.8-1.7-.1-1.2-.5-2.5-.7-3.8 0-.4-.1-.6-.2-1 0-.4-.2-.6-.7-.5-.5.8.7 2.8-.4 2.7-.4 0-.5-.3-.5-.6-.3-1.8-1-1-.9-.4.1.9.4 1.9.5 2.8 0 .5.1.9.3 1.4.2.6-.1 1-.8.8-.3-.4-.4-1.8-.6-2.4-.1-.5-.2-.9-.2-1.3 0-.5 0-.8-.7-.9-.4.4-.2.7-.1 1.1l1 5.8c0 .5.6 2 .2 2.3-1 .5-1-.9-1.1-1.4l-.4-2.1c-.1-1-.4-2.1-.6-3.1 0-.3-.1-1-.6-.7-.5.2-.1 1 0 1.9.1.6.2 1.2.3 1.9l.2 1c.2 1.9.7 3.8 1 5.7 0 .4 0 .8-.3.9-.7.3-.8-1.1-.9-1.5-.1-.7-.2-1.2-.3-1.9-.2-1.2-.5-2.6-.7-3.8-.3-2-.9-1.1-.9-.9 0 .4.5 3.3.6 3.9l.2.9c.3 1.6-.7 1.2-.8.9-.3-.5-.3-2.9-1-2.4-.4.3.2 2.6.3 3.3 0 .3 0 .5.1.8 0 .4.2 2.4.9 1.8.3-.2 0-1.1 0-1.5-.1-.5-.3-1.1.5-1.2.5.2.5.6.6 1 0 .4.1.8.2 1.2.1.7.2 1.7.4 2.4.2.5.9.4.8-.3 0-.5-.7-2.2.2-2.2.7 0 .4.7 1.1.6.4-.3.2-.8.1-1.2 0-.5-.1-.8-.2-1.2 0-.4-.6-2.1.2-2.2.7.1.6.9.7 1.3.2.6 0 1.1.7 1.1.4-.6 0-1.2 0-1.8l-.7-4.3c0-.4-.2-.5.1-.9.7-.3.8.3.9.8.2 1.2.4 2.5.7 3.7 0 .4.1.4.5.4.4-.5.3-.6.1-1.1l-1.2-6.9c-.1-.5-.3-.7.2-1.1.9 0 .8.7.9 1.5l.4 1.9c.2.9.3 1.9.5 2.8.1.9 1 .8.8 0l-.3-1.4c-.1-.5.3-1.1.8-.7.3.2 0 .3.6.5.4-.3.3-.5.2-.9l-.5-2.7c0-.3-.1-.6-.2-.9l-.5-2.7c-.2-.8.7-1 1-.2.2.6.5 2.7.7 3.6 0 .4.1 1.6.6 1.6.6 0 .2-1.1.2-1.5s-.4-1.4-.2-1.6c.4-.4.8-.3 1 .2s0 .9.7 1c.4-.5.3-.6.2-1l-.5-2.8c0-.4.1-.8.5-.8.5 0 .5.4.6.7 0 .3.2 1.7.6 1.7.8-.2.3-1.3.2-1.9 0-.4.3-.7.7-.7s.4.7 1 .4Zm2.1-4.8c.4.3.6.2 1 .2.3 0 .9 0 .8-.6-.1-.4-.8-.3-1-.2-.5 0-.7 0-.7.6Z"/><path fill="#fa0620" d="M0 77.9h4.5c.9-1.5 2.2-3.1 5.1-3.1 5.1 0 9 4.3 16.2 4.3 12 0 21.8-11.2 21.8-22.7S30.3 38.5 30.3 29.3s3.2-7.4 6.9-7.4 5.8 1.8 6.9 6.9c1.3 6 1.3 8.1 4.3 8.1h1.2l5.8-20.7h-3.1c-2 0-2.8 1.9-5.3 1.9-3.8 0-5.9-4.7-13.9-4.7s-19.3 8.7-19.3 20.7S29.7 52 29.7 61.8s-2.9 8.8-8.7 8.8-8.2-3.9-9.3-10.6c-.5-3.3-2.3-4.4-3.6-4.4h-2zm70-29.6c.3-1.1 2.6-3.2 5-3.2s2.7 1.4 2.7 3.7c0 5.8-4.6 21.3-10.5 21.3s-2.3-.5-2.3-1.8.2-1.9.4-2.8zM56.8 95.9l5.7-20.8c2.4 2.6 5 4.1 8.7 4.1 16.5 0 23-23.2 23-32.7s-2.9-13.1-8.6-13.1-7.6 2-13.5 6.9l-.2-.2 1.9-6.8c-5.2 2-15.5 3.2-21.7 3.4l-.9 2.5c-.3.8-.4 1.6-.4 2.2 0 2.4 3.2 1.8 3.2 5.4s-.4 3.1-1.1 5.8L41.1 95.9zM121 33.3c-8.8 2.2-15.2 2.9-22.4 2.9-.7 1.8-1.4 3.2-1.4 4.4 0 2.1 3.1 2.1 3.1 4.9s-.3 2.4-.7 3.9l-4.3 15.4c-.5 2-1.3 4.1-1.3 6.9 0 4.5 3.4 7.4 9.4 7.4s11.2-2.9 15.3-7l-2.2-4.1c-.9.5-2.2 1.3-3.6 1.3s-2-1.2-2-2.3c0-1.9.6-3.5 1-4.8zm31.1 30.6c-2.8 3.3-6.7 6.2-11.3 6.2s-6-2.5-6-6.9c0-10.1 7.2-22.1 11.6-22.1s1.5.2 1.5 1.1-1.6 4.2-1.6 6.4 1.7 5 5.1 5 8.2-4.5 8.2-9.7-3-10.6-12.3-10.6c-15.1 0-29.2 13.9-29.2 30.2s6.4 15.6 15.9 15.6 16.4-4.5 20.4-10.7l-2.4-4.5Zm39.4 1.4c-3.8 2.9-6.5 5.3-11.5 5.3s-6.2-1.7-6.2-5.9.5-3.7.9-5.5h3.4c13.7 0 21.8-7.6 21.8-16.4s-4.6-9.6-12.6-9.6c-15.8 0-30.1 13.4-30.1 30.2S163.8 79 173.5 79s14.7-4 19.6-9.3l-1.6-4.5Zm-5-25.1c1.3 0 2.4.8 2.4 2.3 0 3.8-4.8 9.9-12.2 10.5 1.7-6.1 6.3-12.8 9.8-12.8"/><path fill="#7dc108" d="m99.4 109.8 4.1-14.4c.7-.6 2-1.6 3-1.6s1 .4 1 1.2-.3 1.6-.6 2.9l-3.4 11.9h7.7l4.1-14.4c.9-.8 2.4-2 3.2-2s.9.4.9 1.1c0 1.8-2.9 9.6-2.9 12.5s1.6 3.4 4.1 3.4c4.4 0 6.5-2.6 7.4-3.6l-.8-1.8c-.6.4-1.2.9-1.9.9s-.9-.1-.9-.9c0-1.6 2.9-9.1 2.9-12.2s-1.8-4.3-4.4-4.3-5.3 2.3-7.4 3.6c0-1.2-.2-3.8-3.5-3.8s-5.3 2.2-7.7 3.7l1-3.7c-3.5.9-6.4 1.7-10 1.7l-.4.9c-.2.5-.3 1-.3 1.3 0 1.2 1.3 1 1.3 2.5s-.1 1.2-.4 2l-3.8 13.1h7.5Zm51.9-5.5c-.6.5-1.4 1.3-2.3 1.3s-.8-.5-.8-1.2.2-1.6.4-2.6l2.5-9.6c.7-2.6 1-3.5 1-3.7s0-.3-.2-.3-3.3 2.1-4.7 2.1-2.5-2.2-5.6-2.2c-5.6 0-12.8 6.1-12.8 15.5s1.9 6.5 5.1 6.5 5.7-3.1 6.3-3.8c.3.9 1.2 3.8 4.8 3.8s6.1-2 7-4.7l-.7-1.4Zm-10.7-.9c0 .2-1.3 1.6-2.3 1.6s-1.4-.7-1.4-2c0-2.6 2.2-10.8 5.7-10.8s.8.3.8.7-.1.7-.5 2.2zm21.9-1.6c.9-3.2 2.8-6.5 4-6.5s.7 2.1 2.9 2.1 3.7-2.3 3.7-4.9-1.8-4-3.2-4c-3 0-6.2 5.4-7 7v-7c-3.1 1-6.4 1.6-9.4 1.9v1.7c0 1.8 2.5 1 2.5 4.3s-.5 3.5-1 5.6l-2 7.9h7.7l2.3-8.1Zm24.8-20.4-5.5.8c-2.1.3-2.3.7-3.2 3.5-1.7 4.8-4.4 1.9-5.4 5.1l-.5 1.6h3.7l-2.7 9.1c-.4 1.3-.7 3.1-.7 4.2 0 2.6 1.6 4.6 4.8 4.6s6.6-2.2 8.5-4.7l-.8-2c-1 1-2.2 1.7-3.2 1.7s-1.3-.5-1.3-1.3.2-1.6.6-2.9l2.5-8.7h4.8l1-3.5h-4.8l2.2-7.6Z"/></svg>