<?xml version="1.0" encoding="UTF-8"?>
<svg id="Layer_1" xmlns="http://www.w3.org/2000/svg" version="1.1" viewBox="0 0 24 24">
  <!-- Generator: Adobe Illustrator 29.7.1, SVG Export Plug-In . SVG Version: 2.1.1 Build 8)  -->
  <path d="M12,2.4C6.7,2.4,2.4,6.7,2.4,12s4.3,9.6,9.6,9.6,9.6-4.3,9.6-9.6S17.3,2.4,12,2.4ZM12,20.4c-4.6,0-8.4-3.8-8.4-8.4S7.4,3.6,12,3.6s8.4,3.8,8.4,8.4-3.8,8.4-8.4,8.4Z"/>
  <path d="M12,6.4c-1.8,0-3.4,1.4-3.6,3.2h1.2c.2-1.1,1.2-2,2.4-2s2.4,1.1,2.4,2.4-.8,1.8-1.5,2.4c-.7.6-1.4,1.2-1.5,2.2h1.2c.2-.7.7-1.3,1.3-1.8.8-.8,1.6-1.5,1.6-2.8,0-2-1.6-3.6-3.6-3.6Z"/>
  <rect x="11.4" y="16.4" width="1.2" height="1.2"/>
</svg>