<?xml version="1.0" encoding="UTF-8"?>
<svg id="Layer_1" xmlns="http://www.w3.org/2000/svg" version="1.1" viewBox="0 0 15 13">
  <!-- Generator: Adobe Illustrator 29.7.1, SVG Export Plug-In . SVG Version: 2.1.1 Build 8)  -->
  <path d="M14.3,7.2c-.3.3-.7.3-1,0L7.3,2.1,1.3,7.2c-.3.3-.8.3-1,0-.3-.3-.2-.8.1-1L7.3.1l3.6,3.1v-1h1.5v2.3l1.9,1.6c.3.3.4.7.1,1ZM12.3,7.4v4.2c0,.5-.4.8-.8.8,0,0,0,0,0,0h-2.5v-4.2c0-.2-.2-.3-.3-.3h-2.9c-.2,0-.3.1-.3.3v4.2h-2.4c-.5,0-.9-.4-.9-.8v-4.2L7.3,3l5,4.3Z" style="fill: #fff;"/>
</svg>