<svg xmlns="http://www.w3.org/2000/svg" viewBox="0 0 50 50"><path fill="#fff" d="M32.1 12.6H18c-2.9 0-5.3 2.4-5.3 5.3V32c0 2.9 2.4 5.3 5.3 5.3h14.1c2.9 0 5.3-2.4 5.3-5.3V17.9c0-2.9-2.4-5.3-5.3-5.3M25 33.8c-4.9 0-8.8-4-8.8-8.8s4-8.8 8.8-8.8 8.8 4 8.8 8.8-4 8.8-8.8 8.8m8.8-15.9c-1 0-1.8-.8-1.8-1.8s.8-1.8 1.8-1.8 1.8.8 1.8 1.8-.8 1.8-1.8 1.8"/><path fill="#fff" d="M25 0C11.2 0 0 11.2 0 25s11.2 25 25 25 25-11.2 25-25S38.8 0 25 0m15.9 32.1c0 4.9-4 8.8-8.8 8.8H18c-4.9 0-8.8-4-8.8-8.8V18c0-4.9 4-8.8 8.8-8.8h14.1c4.9 0 8.8 4 8.8 8.8z"/><circle cx="25" cy="25" r="5.3" fill="#fff"/></svg>