<svg xmlns="http://www.w3.org/2000/svg" xml:space="preserve" viewBox="0 0 22 22"><path fill="#1d9446" d="m11.5.2 1 1c.2.2.5.3.8.2l1.3-.6c.4-.2.8 0 .9.4l.6 1.3c.2.3.4.5.7.5h1.4c.5 0 .8.3.8.7v1.4c0 .3.2.6.4.7l1.3.6c.4.2.5.6.4.9l-.6 1.3c-.1.3 0 .6.2.8l1 1c.3.3.3.7 0 1l-1 1c-.2.2-.3.5-.2.8l.6 1.3c.2.4 0 .8-.4.9l-1.3.6c-.3.1-.4.4-.4.7v1.4c0 .4-.3.7-.7.7h-1.4c-.3 0-.6.2-.7.4l-.6 1.3c-.2.4-.6.5-.9.4l-1.3-.6c-.3-.1-.6 0-.8.2l-1 1c-.3.3-.7.3-1 0l-1-1c-.2-.2-.5-.3-.8-.2l-1.3.6c-.4.2-.8 0-.9-.4L6 19.2c-.3 0-.5-.2-.8-.2H3.8c-.5 0-.8-.3-.8-.7v-1.4c0-.3-.2-.6-.4-.7l-1.3-.6c-.4-.2-.5-.6-.4-.9l.6-1.3c.1-.3 0-.6-.2-.8l-1-1c-.3-.3-.3-.7 0-1l1-1c.2-.2.3-.5.2-.8L.8 7.3c-.1-.3.1-.7.4-.9l1.3-.6c.3-.1.5-.3.5-.6V3.8c0-.5.3-.8.7-.8h1.4c.3 0 .6-.2.7-.4l.6-1.3c.2-.4.6-.6.9-.5l1.3.6c.3.1.6 0 .8-.2l1-1c.4-.3.8-.3 1.1 0"/><path fill="#fff" d="M9.2 16.3 4.9 12c-.4-.4-.4-1.1 0-1.6.4-.4 1.1-.4 1.6 0l2.8 2.8 6.9-6.9c.4-.4 1.1-.4 1.6 0 .4.4.4 1.1 0 1.6z"/></svg>