<svg xmlns="http://www.w3.org/2000/svg" viewBox="0 0 50 50"><path fill="none" stroke="#055941" stroke-linecap="round" stroke-miterlimit="10" d="m18 25.9.8-1.1c1.3-1.9 2-4.1 2-6.4s1.7-4 3.9-4c2.4-.2 4.6 1.5 4.6 4 0 2.3.7 4.5 2 6.4 1.4 1.8 2.7 4 2.6 6.3 0 4.5-3.6 8.1-8.1 8.1-2.7.2-5.3-.4-7.2-2.4-2.2-2.1-2.9-5.4-2-8.3"/><path fill="none" stroke="#055941" stroke-linecap="round" stroke-miterlimit="10" d="M20.9 31.4c0-2.5 2-5.7 4.1-5.7s4.1 3.2 4.1 5.7c-.2 5.5-8.1 5.5-8.3 0h0ZM25 14.3s-1.3-1.8 0-3.6"/><circle cx="25" cy="25" r="22.5" fill="none" stroke="#055941" stroke-linecap="round" stroke-miterlimit="10"/><path fill="none" stroke="#055941" stroke-linecap="round" stroke-miterlimit="10" d="M41.7 15.5c1.6 2.8 2.5 6 2.5 9.5 0 10.6-8.6 19.2-19.2 19.2S5.8 35.6 5.8 25 14.4 5.8 25 5.8s12 3.1 15.4 7.8"/></svg>