<svg xmlns="http://www.w3.org/2000/svg" viewBox="0 0 50 50"><path fill="none" stroke="#055941" stroke-linecap="round" stroke-miterlimit="10" d="M28.6 45.3c-.8 1.4-2.3 2.2-3.9 2.2h-4 0-6.6c-2.6 0-4.6-2-4.6-4.7V21.6q0 0 0 0v-.1h0s0 0 0 0q0 0 0 0h0q0 0 0 0t0 0v-.3h0s0 0 0 0q0 0 0 0v-.1q0 0 0 0v-.3q0 0 0 0h0v-.2h0v-.2h0V20q0 0 0 0v-.6c0-.2.1-.3.2-.4q0 0 0 0h0q0 0 0 0h0s0 0 0 0c.8-1.7 1.9-3.3 3.6-5.1 1.1-1.1 1.5-2.3 1.4-3.6h0c0-.5 0-.5-.2-.6-.5-.3-.7-.9-.7-1.4h0V5.8c0-1.1.8-1.8 1.9-1.8h6.2c1.1 0 1.8.7 1.9 1.8v2.5c0 .4-.3 1-.7 1.4-.2.1-.2.2-.2.6h0c-.2 1.4.3 2.5 1.4 3.7 1.7 1.8 2.8 3.4 3.6 5.1.7 1.5 1 2.9 1 4.4v5.9h0m-18-8.9h0s0 0 0 0Z"/><path fill="none" stroke="#055941" stroke-linecap="round" stroke-miterlimit="10" d="M28.6 24.2c-1.1 0-1.7-.7-2.2-1.2-.4-.5-.8-.9-1.5-.9s-1.1.4-1.5.9c-.5.6-1.1 1.2-2.2 1.2s-1.7-.7-2.2-1.2c-.4-.5-.8-.9-1.5-.9s-1.1.4-1.5.9c-.5.6-1.1 1.2-2.2 1.2s-1.7-.7-2.2-1.2c-.4-.5-.8-.9-1.5-.9h0c-.4 0-.7-.5-.7-1.2s.3-1.2.7-1.2c1.1 0 1.7.7 2.2 1.2.4.5.8.9 1.5.9s1.1-.4 1.5-.9c.5-.6 1.1-1.2 2.2-1.2s1.7.7 2.2 1.2c.4.5.8.9 1.5.9s1.1-.4 1.5-.9c.5-.6 1.1-1.2 2.2-1.2s1.7.7 2.2 1.2c.4.5.8.9 1.5.9h0c.4 0 .7.5.7 1.2s-.3 1.2-.7 1.2Zm-13.5-16h8.4"/><circle cx="31.5" cy="36.7" r="9.1" fill="none" stroke="#055941" stroke-linecap="round" stroke-miterlimit="10"/><path fill="none" stroke="#055941" stroke-linecap="round" stroke-miterlimit="10" d="m35 33.1-7 7.1m7 0-7-7.1"/></svg>