<svg xmlns="http://www.w3.org/2000/svg" viewBox="0 0 24 24"><path d="M22.02 12.94c.01 5.54-4.46 10.03-10 10.05-5.53.01-10.03-4.47-10.04-10-.01-4.09 2.46-7.78 6.25-9.31.53-.18 1.1.11 1.27.63.16.48-.06 1.01-.52 1.23-4.1 1.67-6.07 6.34-4.4 10.44s6.34 6.07 10.44 4.4 6.07-6.34 4.4-10.44c-.81-2-2.4-3.59-4.4-4.4a.999.999 0 0 1-.63-1.27c.18-.53.75-.81 1.27-.63.04.01.08.03.11.05a9.926 9.926 0 0 1 6.25 9.25zM12 12.29c.56 0 1.01-.45 1.01-1.01V1.87c0-.56-.45-1.01-1.01-1.01s-1.01.45-1.01 1.01v9.41c0 .56.45 1.01 1.01 1.01z"/></svg>