<svg xmlns="http://www.w3.org/2000/svg" viewBox="0 0 50 50"><path d="M.004 3v32H2V5h43V3ZM4 7l.043 31.957L30.051 39c.504 5.035 4.785 9 9.949 9 5.5 0 10-4.5 10-10 0-2.234-.75-4.293-2-5.965V7Zm2 2h40v2.344L29.043 26.125c-1.121.977-2.262 1.172-2.867 1.172-.606 0-1.742-.2-2.863-1.172L6.003 11.043Zm.008 4.7c1.703 1.48 6.715 5.85 11.265 9.816l-11.242 8.89ZM46 13.995v16.031A9.925 9.925 0 0 0 40 28c-5.164 0-9.445 3.965-9.95 9l-24.01-.04v-2.007l12.769-10.101c1.035.906 2.949 2.57 3.191 2.78 1.523 1.329 3.14 1.665 4.176 1.665 1.035 0 2.652-.336 4.18-1.664L46 13.996ZM40 30c4.398 0 8 3.602 8 8s-3.602 8-8 8-8-3.602-8-8 3.602-8 8-8Zm.047 2c-.285 0-.711.14-.852.422-.14.144-.21.355-.21.637v3.96h-3.962c-.28 0-.636.07-.777.356l-.07.07a1.036 1.036 0 0 0 .281 1.414c.14.141.355.211.637.211h3.96v3.961c0 .567.426.989.993.989a.962.962 0 0 0 .984-.989v-3.96h3.965a.969.969 0 0 0 .988-.993.964.964 0 0 0-.988-.984l-4.031-.074v-3.958c0-.566-.426-.992-.918-1.062Z"/></svg>