<svg xmlns="http://www.w3.org/2000/svg" viewBox="0 0 100 18"><path fill="#f9a606" d="m8.9.5 3 5.4L17.8 7l-4.1 4.3.7 6.2-5.5-2.7-5.4 2.7.7-6.2L0 7l6-1.1z"/><path fill="#ddd" d="m100 7-5.9-1.1-3-5.4-2.8 5.4L82.2 7l4.3 4.3-.8 6.2 5.4-2.7 5.6 2.7-.8-6.2zM79.4 7l-6-1.1L70.6.5l-3 5.4L61.7 7l4 4.3-.7 6.2 5.6-2.7 5.5 2.7-.9-6.2zM59 7l-6.1-1.1L50.1.5l-3 5.4L41 7l4.3 4.3-.8 6.2 5.6-2.7 5.4 2.7-.8-6.2z"/><path fill="#f9a606" d="m29.4.5 1.5 5.9L34.2 8l-1.8 3.2 2.5 6.3-5.5-2.7-5.5 2.7.8-6.2L20.5 7l6-1.1z"/><path fill="#ddd" d="M29.4.5v14.3l5.5 2.7-.7-6.2L38.4 7l-6-1.1z"/></svg>