<svg xmlns="http://www.w3.org/2000/svg" viewBox="0 0 50 50"><path fill="none" stroke="#055941" stroke-linecap="round" stroke-miterlimit="10" d="M6.3 35.5C1.7 25.5 1.6 15.9 8.9 8s18.2-9.3 26.7-4.2S50 21.4 45.8 31.5s-14.5 8.8-17.2 7"/><path fill="none" stroke="#055941" stroke-linecap="round" stroke-miterlimit="10" d="m2.5 33.7 3.8 1.8.9-3.8m38.6-.2c-2.3-5-5.7-7.2-10.4-7.4s-9.2 2.9-12.3 7.8c-2.9 4.5-5.5 7.9-8.5 10.8 5.1 5.4 12.4 7.5 22.3 5.7 8.9-3.2 12.5-8.5 8.9-16.9Z"/><path fill="none" stroke="#055941" stroke-linecap="round" stroke-miterlimit="10" d="M21.4 34.4c-4.7-4.8-7.8-10-7.6-16 3.4.5 8.6 0 17-2.5s16.8 5.9 15 15.6"/></svg>