<?xml version="1.0" encoding="UTF-8"?>
<svg id="Layer_1" xmlns="http://www.w3.org/2000/svg" version="1.1" viewBox="0 0 24 24">
  <!-- Generator: Adobe Illustrator 29.7.1, SVG Export Plug-In . SVG Version: 2.1.1 Build 8)  -->
  <rect x="11.4" y="13.4" width="6.2" height="1.2" rx=".3" ry=".3"/>
  <rect x="11.4" y="17.4" width="6.2" height="1.2" rx=".3" ry=".3"/>
  <path d="M5.7,2.6h10.6c.2,0,.3-.1.3-.3v-.6c0-.2-.1-.3-.3-.3H5.7c-1.3,0-2.3,1-2.3,2.3v12.6c0,.2.1.3.3.3h.6c.2,0,.3-.1.3-.3V3.7c0-.6.5-1.1,1.1-1.1Z"/>
  <path d="M21.6,10.3c0,0,0-.2,0-.2l-4.6-4.6c0,0-.1,0-.2,0h-7c-1.3,0-2.3,1-2.3,2.3v12.6c0,1.3,1,2.3,2.3,2.3h9.6c1.3,0,2.3-1,2.3-2.3v-10ZM20.4,20.3c0,.6-.5,1.1-1.1,1.1h-9.6c-.6,0-1.1-.5-1.1-1.1V7.7c0-.6.5-1.1,1.1-1.1h5.6c.6,0,1.1.5,1.1,1.1v2.6c0,.2.1.3.3.3h2.6c.6,0,1.1.5,1.1,1.1v8.6Z"/>
</svg>