<?xml version="1.0" encoding="UTF-8"?>
<svg id="Layer_1" xmlns="http://www.w3.org/2000/svg" version="1.1" viewBox="0 0 50 50">
  <!-- Generator: Adobe Illustrator 29.7.1, SVG Export Plug-In . SVG Version: 2.1.1 Build 8)  -->
  <g>
    <path d="M25,50C11.2,50,0,38.8,0,25S11.2,0,25,0s25,11.2,25,25-11.2,25-25,25ZM25,5C14,5,5,14,5,25s9,20,20,20,20-9,20-20S36,5,25,5Z" style="fill: #f32e2e;"/>
    <path d="M14.5,36.7c-1-1-1-2.5,0-3.5,5.8-5.8,15.2-5.8,21.2,0,1,1,1,2.5,0,3.5s-2.5,1-3.5,0c-4-4-10.2-4-14.2,0-.5.5-2.3,1.5-3.5,0Z" style="fill: #f32e2e;"/>
  </g>
  <g>
    <circle cx="16.2" cy="18.8" r="3.7" style="fill: #f32e2e;"/>
    <circle cx="33.8" cy="18.8" r="3.7" style="fill: #f32e2e;"/>
  </g>
</svg>