<?xml version="1.0" encoding="UTF-8"?>
<svg id="Layer_1" xmlns="http://www.w3.org/2000/svg" version="1.1" viewBox="0 0 50 50">
  <!-- Generator: Adobe Illustrator 29.7.1, SVG Export Plug-In . SVG Version: 2.1.1 Build 8)  -->
  <path d="M25,50c-3,0-5.9-.5-8.7-1.5-5-1.9-9.4-5.4-12.3-9.8C1.1,34.1-.3,28.7,0,23.4s2.5-10.5,5.9-14.6C9.5,4.7,14.3,1.8,19.5.6,24.7-.6,30.3,0,35.2,2.2c1.3.6,1.8,2,1.3,3.3-.6,1.3-2,1.8-3.3,1.3-3.9-1.7-8.4-2.2-12.5-1.2-4.2.9-8,3.3-10.8,6.5-2.8,3.3-4.5,7.4-4.8,11.7s.8,8.6,3.2,12.2c2.3,3.6,5.8,6.4,9.8,7.9,4,1.5,8.5,1.6,12.6.4,4.1-1.2,7.8-3.8,10.3-7.2,2.6-3.4,4-7.7,4-12v-2.1c0-1.4,1.1-2.5,2.5-2.5s2.5,1.1,2.5,2.5v2.1c0,5.4-1.8,10.7-5,15-3.2,4.3-7.8,7.5-12.9,9-2.3.7-4.7,1-7.1,1Z" style="fill: #80c342;"/>
  <path d="M25,32c-.7,0-1.3-.3-1.8-.7l-8.4-8.4c-1-1-1-2.6,0-3.5,1-1,2.6-1,3.5,0l6.7,6.7L45.7,5.2c1-1,2.6-1,3.5,0,1,1,1,2.6,0,3.5l-22.5,22.5c-.5.5-1.1.7-1.8.7h0Z" style="fill: #80c342;"/>
</svg>