<?xml version="1.0" encoding="UTF-8"?>
<svg id="Layer_1" xmlns="http://www.w3.org/2000/svg" version="1.1" viewBox="0 0 100 100">
  <!-- Generator: Adobe Illustrator 29.7.1, SVG Export Plug-In . SVG Version: 2.1.1 Build 8)  -->
  <path d="M35.9,28.3h-14.1M82.3,28.2h11.5l-12.4,39.6c-1.1,3.6-4.5,6.1-8.3,6.1h-39c-4.4,0-8.1-3.3-8.5-7.7l-3.9-37.9-1.5-14.4H6.2" style="fill: none; stroke: #231f20; stroke-miterlimit: 10; stroke-width: 6px;"/>
  <path d="M82.3,28.2c0,12.8-10.4,23.2-23.2,23.2s-23.2-10.4-23.2-23.2h0c0-12.8,10.3-23.2,23.2-23.2s23.2,10.4,23.2,23.2Z" style="fill: none; stroke: #231f20; stroke-miterlimit: 10; stroke-width: 6px;"/>
  <path d="M59.1,14.8v13.4l8.5,8.5" style="fill: none; stroke: #231f20; stroke-miterlimit: 10; stroke-width: 6px;"/>
  <circle cx="37.4" cy="88.5" r="6.5" style="fill: none; stroke: #231f20; stroke-miterlimit: 10; stroke-width: 6px;"/>
  <circle cx="67.6" cy="88.5" r="6.5" style="fill: none; stroke: #231f20; stroke-miterlimit: 10; stroke-width: 6px;"/>
</svg>