<?xml version="1.0" encoding="UTF-8"?>
<svg id="Layer_1" xmlns="http://www.w3.org/2000/svg" version="1.1" viewBox="0 0 32 32">
  <!-- Generator: Adobe Illustrator 29.7.1, SVG Export Plug-In . SVG Version: 2.1.1 Build 8)  -->
  <path d="M3,1.5v26h13.1c-.4-.6-.7-1.3-.9-2H5V3.5h10v6h6v6.4c.5-.2,1.2-.4,2-.4v-7.4l-6.6-6.6H3ZM17,4.9l2.6,2.6h-2.6v-2.6ZM8,11.5v2h10v-2h-10ZM8,15.5v2h10v-2h-10ZM23,17.1l-.7.6s-1,.9-1.7,1.2c-.8.3-1.3.5-2.6.5h-1v4.2c0,2.2,1.5,3.9,2.9,5,.8.7,1.7,1.2,2.7,1.7h0s0,0,0,0h.4c0,.1.4,0,.4,0,.1,0,0,0,0,0h0c.3-.2.5-.3.8-.4.6-.4,1.3-.8,1.9-1.3,1.4-1.1,2.9-2.8,2.9-5v-4.2h-1c-1.3,0-1.8-.2-2.6-.6-.7-.3-1.7-1.2-1.7-1.2l-.7-.6h0ZM8,19.5v2h7v-2h-7ZM23,19.7c.4.3.7.7,1.6,1.1.6.3,1.5.4,2.4.5v2.4c0,1.3-1,2.5-2.1,3.5-.6.5-1.1.8-1.6,1.1-.1,0-.2.1-.3.2-.1,0-.2,0-.3-.2-.6-.3-1.1-.7-1.6-1.1-1.1-.9-2.1-2.1-2.1-3.5v-2.4c.9-.1,1.8-.2,2.4-.5.9-.4,1.2-.8,1.6-1.1h0Z"/>
</svg>