<?xml version="1.0" encoding="UTF-8"?>
<svg id="Layer_1" xmlns="http://www.w3.org/2000/svg" version="1.1" viewBox="0 0 50 50">
  <!-- Generator: Adobe Illustrator 29.7.1, SVG Export Plug-In . SVG Version: 2.1.1 Build 8)  -->
  <path d="M25,50C11.2,50,0,38.8,0,25S11.2,0,25,0s25,11.2,25,25-11.2,25-25,25ZM25,4.2C13.5,4.2,4.2,13.5,4.2,25s9.3,20.8,20.8,20.8,20.8-9.3,20.8-20.8S36.5,4.2,25,4.2ZM21.9,32.9h0c-.6,0-1.1-.3-1.5-.8l-5.1-6.2c-.7-.9-.6-2.2.4-2.9.9-.7,2.2-.6,2.9.3l3.6,4.4,9.7-9.9c.8-.9,2.1-1,2.9-.2.9.8,1,2.1.2,2.9,0,0-.1.1-.2.2l-11.3,11.6c-.4.4-.9.6-1.5.6Z" style="fill: #fff;"/>
</svg>