<?xml version="1.0" encoding="UTF-8"?>
<svg id="Layer_1" xmlns="http://www.w3.org/2000/svg" version="1.1" viewBox="0 0 32 32">
  <!-- Generator: Adobe Illustrator 29.7.1, SVG Export Plug-In . SVG Version: 2.1.1 Build 8)  -->
  <path d="M2,2v24h14.8c2,2.4,5.1,3.8,5.3,3.8l.4.2.4-.2c.3,0,7.1-3.1,7.1-8.3v-5.5h-.9c-1.3,0-2.3-.4-3.1-.7V2H2ZM4,4h20v4H4v-4ZM5,5v2h2v-2h-2ZM8,5v2h2v-2h-2ZM11,5v2h2v-2h-2ZM4,10h20v4.3c-.5-.2-1-.3-1.5-.3-1,0-1.8.4-2.5.8-.9.5-2.1,1.2-4,1.2h-.9v5.5c0,.9.2,1.7.6,2.5H4v-14ZM22.5,16c.5,0,.9.2,1.7.6h0s0,0,0,0h.3c.8.5,1.9,1.1,3.5,1.3v3.5c0,3.3-4.3,5.7-5.5,6.3-1.2-.6-5.5-3-5.5-6.3v-3.5c1.7-.2,2.8-.8,3.6-1.2h.3c0-.1,0-.2,0-.2h0c.7-.5,1-.6,1.5-.6Z"/>
</svg>