<svg xmlns="http://www.w3.org/2000/svg" viewBox="0 0 50 50"><path d="M22.1 32.1H5.6v-21h9.1v10.5c0 .5.2.8.6 1 .3.1.7.2 1.1 0l2.3-1.1 2.3 1.1c.3.1.7.1 1 0 .3-.1.6-.6.6-1V11.1h9.2v3.6c0 .7.4 1.1 1.1 1.1.7 0 1.1-.5 1.1-1.1v-4.5c0-.1 0-.4-.1-.6l-4.4-7.3c-.1-.3-.6-.6-1-.6H8.6c-.2.1-.6.2-.8.6L3.6 9.5c-.2.2-.2.4-.2.7v23.2c0 .7.4 1.1 1.1 1.1h17.7c.2-.1.9-.5.9-1.2.1-.7-.4-1.2-1-1.2zM6.5 8.9c.5-.9 2-3.3 3-5.1h5.4v5.1H6.5zm10.4 10.9V3.9h3.5v15.9l-1.3-.6c-.3-.1-.7-.1-1 0l-1.2.6zm5.8-10.9v-5H28L31 9h-8.3z"/><path d="M44.7 22.2c-.9-1.6-2.4-2.8-4.1-3.7-1.6-.8-3.3-1.2-5.2-1.2-1.7 0-3.4.4-5.2 1.2-1.9.8-3.1 2.3-4.1 3.7-1.2 1.8-1.9 3.9-1.9 6.2s.6 4.3 1.9 6.2l9.3 13.8 9.3-13.8c1.2-1.8 1.9-3.9 1.9-6.2.1-2.3-.7-4.4-1.9-6.2zm-1.9 11.1-7.4 11.1L28 33.3c-2.1-3.1-2.1-7.1 0-10.1 1.8-2.5 4.4-3.9 7.4-3.9s5.8 1.6 7.4 3.9c2 3.1 2 6.9 0 10.1z"/><path d="M35.4 21.8c-3.3 0-6 2.6-6 6 0 3.3 2.6 6 6 6 3.3 0 6-2.7 6-6-.1-3.3-2.7-6-6-6zm0 9.6c-2.1 0-3.6-1.7-3.6-3.6 0-2.1 1.7-3.6 3.6-3.6 1 0 2 .4 2.7 1.1.7.6 1 1.5 1 2.5 0 2.1-1.7 3.6-3.7 3.6z"/></svg>