<?xml version="1.0" encoding="UTF-8"?>
<svg id="Layer_1" xmlns="http://www.w3.org/2000/svg" version="1.1" viewBox="0 0 50 50">
  <!-- Generator: Adobe Illustrator 29.7.1, SVG Export Plug-In . SVG Version: 2.1.1 Build 8)  -->
  <path d="M25,7.1c2.1,0,4.1.9,5.4,2.3s2.3,3.3,2.3,5.4-.9,4.1-2.3,5.4-3.3,2.3-5.4,2.3-4.1-.9-5.4-2.3-2.3-3.3-2.3-5.4.9-4.1,2.3-5.4,3.3-2.3,5.4-2.3ZM33.3,30.2c2.8.7,5.2,1.7,7,3,2.5,1.7,4,3.9,4,6.4s-2.3,5.8-6.1,7.6c-3.4,1.7-8.1,2.8-13.2,2.8s-9.8-1.1-13.2-2.8c-3.7-1.9-6.1-4.6-6.1-7.6s1.5-4.7,4-6.4c1.8-1.3,4.2-2.3,7-3-3.4-4.9-6.5-10.4-6.5-15.3s1.7-7.8,4.4-10.5h0C17.3,1.6,20.9,0,25,0s7.8,1.7,10.5,4.4h0c2.6,2.8,4.3,6.5,4.3,10.5s-3.1,10.4-6.5,15.3h0ZM18.6,32.9c-2.9.6-5.4,1.6-7.2,2.8-1.7,1.2-2.6,2.5-2.6,3.9s1.7,3.6,4.4,4.9c3,1.5,7.2,2.4,11.9,2.4s8.9-.9,11.9-2.4c2.7-1.3,4.4-3.1,4.4-4.9s-1-2.7-2.6-3.9c-1.8-1.2-4.3-2.2-7.2-2.8l-.8,1.2-.5.7c1.4.3,2.6.7,3.6,1.2,1.8.9,2.9,2.2,2.9,3.8s-1.5,3.3-3.9,4.2c-2,.8-4.7,1.3-7.7,1.3s-5.7-.5-7.7-1.3c-2.4-1-3.9-2.4-3.9-4.2s1.1-2.8,2.9-3.8c1-.5,2.2-.9,3.6-1.2l-.5-.7-.8-1.2ZM21.8,37.5c-1.7.2-3.1.6-4.1,1.2-.8.4-1.2.8-1.2,1,0,.4.8.9,2,1.4,1.6.6,4,1,6.6,1s4.9-.4,6.6-1c1.2-.5,2-1,2-1.4s-.5-.7-1.2-1c-1-.5-2.5-.9-4.1-1.2-.7,1-1.3,2-1.8,2.9-.4.7-1.3,1-2.1.6-.3-.1-.5-.4-.6-.6-.5-.9-1.1-1.8-1.8-2.9h0ZM21.9,32.3c1.1,1.6,2.2,3.1,3.1,4.4.9-1.4,2-2.8,3.1-4.4,3.9-5.5,8.7-12.1,8.7-17.4s-1.3-6.1-3.4-8.3h0c-2.1-2.2-5.1-3.5-8.3-3.5s-6.1,1.3-8.3,3.4h0c-2.1,2.2-3.5,5.2-3.5,8.4,0,5.4,4.8,12,8.7,17.4h0ZM28.3,11.6c-.8-.8-2-1.4-3.3-1.4s-2.4.5-3.3,1.4c-.8.8-1.4,2-1.4,3.3s.5,2.4,1.4,3.3c.8.8,2,1.4,3.3,1.4s2.4-.5,3.3-1.4c.8-.8,1.4-2,1.4-3.3s-.5-2.4-1.4-3.3Z" style="fill: #fff;"/>
</svg>