<?xml version="1.0" encoding="UTF-8"?>
<svg id="Layer_1" xmlns="http://www.w3.org/2000/svg" version="1.1" viewBox="0 0 50 50">
  <!-- Generator: Adobe Illustrator 29.7.1, SVG Export Plug-In . SVG Version: 2.1.1 Build 8)  -->
  <path d="M6.3,7.5h37.4c1.7,0,3.3.7,4.4,1.8,1.1,1.1,1.9,2.7,1.9,4.4v22.5c0,1.7-.7,3.3-1.8,4.4h0c-1.1,1.2-2.7,1.8-4.3,1.8H6.3c-1.7,0-3.3-.7-4.4-1.8s-1.8-2.7-1.8-4.4V13.7c0-1.7.7-3.3,1.8-4.4,1.1-1.1,2.7-1.9,4.4-1.9h0ZM3.1,33.6h27.7v-3.1H3.1v3.1ZM32.4,36.7H3.1c0,.7.4,1.4.9,1.9.6.6,1.4.9,2.3.9h37.4c.9,0,1.6-.3,2.2-.9h0c.6-.6.9-1.5.9-2.3V13.7c0-.9-.4-1.7-.9-2.3-.6-.6-1.4-.9-2.3-.9H6.3c-.9,0-1.7.4-2.3.9-.6.6-.9,1.4-.9,2.3v13.6h29.3c.8,0,1.5.7,1.5,1.5v6.2c0,.8-.7,1.5-1.5,1.5h0ZM7.3,23c-.8,0-1.5-.7-1.5-1.5s.7-1.5,1.5-1.5h10c.8,0,1.5.7,1.5,1.5s-.7,1.5-1.5,1.5H7.3ZM7.3,17.9c-.8,0-1.5-.7-1.5-1.5s.7-1.5,1.5-1.5h5.3c.8,0,1.5.7,1.5,1.5s-.7,1.5-1.5,1.5h-5.3ZM32.5,16.2c-.7,0-1.4.3-1.9.8h0c-.4.5-.7,1.2-.7,1.9s.3,1.4.8,1.9c.5.5,1.1.8,1.9.8s1.4-.3,1.9-.8c.5-.5.8-1.1.8-1.9s-.3-1.4-.8-1.9h0c-.5-.5-1.1-.8-1.8-.8h0ZM28.4,14.8c1-1,2.5-1.7,4.1-1.7s2.1.3,2.9.8c.2-.1.5-.3.8-.4.7-.3,1.4-.4,2.2-.4,1.6,0,3,.6,4.1,1.7s1.7,2.5,1.7,4.1-.6,3-1.7,4.1-2.5,1.7-4.1,1.7-1.5-.2-2.2-.4c-.3-.1-.5-.2-.8-.4-.9.5-1.9.8-2.9.8-1.6,0-3-.6-4.1-1.7-1-1-1.7-2.5-1.7-4.1s.6-2.9,1.6-4h0c0,0,0-.1,0-.1ZM37.6,16.3c.4.8.6,1.6.6,2.6s-.2,1.8-.6,2.6c.2,0,.5,0,.7,0,.7,0,1.4-.3,1.9-.8.5-.5.8-1.1.8-1.9s-.3-1.4-.8-1.9c-.5-.5-1.1-.8-1.9-.8s-.5,0-.7,0h0Z" style="fill: #fff;"/>
</svg>