<?xml version="1.0" encoding="UTF-8"?>
<svg id="Layer_1" xmlns="http://www.w3.org/2000/svg" version="1.1" viewBox="0 0 50 50">
  <!-- Generator: Adobe Illustrator 29.7.1, SVG Export Plug-In . SVG Version: 2.1.1 Build 8)  -->
  <path d="M42.3,2.1H7.7C3.4,2.1,0,5.6,0,9.8v26c0,.9.7,1.7,1.7,1.7h10.3v8.7c0,.6.3,1.2.9,1.5.2.1.5.2.8.2s.6,0,.9-.3l4.9-3.2,4.9,3.2c.6.4,1.3.4,1.8,0l4.9-3.2,4.9,3.2c.6.4,1.3.4,1.9,0l4.9-3.2,4.9,3.2c.5.3,1.2.4,1.7,0,.5-.3.9-.9.9-1.5V9.8c0-4.2-3.4-7.7-7.7-7.7h0ZM3.3,34.1V9.8c0-2.4,1.9-4.3,4.3-4.3s4.3,1.9,4.3,4.3v24.4H3.3ZM46.7,43.1l-3.2-2.1c-.6-.4-1.3-.4-1.9,0l-4.9,3.2-4.9-3.2c-.6-.4-1.3-.4-1.8,0l-4.9,3.2-4.9-3.2c-.3-.2-.6-.3-.9-.3s-.6,0-.9.3l-3.2,2.1V9.8c0-1.6-.5-3.1-1.3-4.3h28.4c2.4,0,4.3,1.9,4.3,4.3v33.3ZM37.7,17.7l-9.1,9.1-4.3-4.3c-.7-.7-1.7-.7-2.4,0s-.7,1.7,0,2.4l5.5,5.5c.3.3.8.5,1.2.5s.9-.2,1.2-.5l10.3-10.3c.7-.7.7-1.7,0-2.4s-1.7-.7-2.4,0h0Z" style="fill: #fff;"/>
</svg>