<?xml version="1.0" encoding="UTF-8"?>
<svg id="Layer_1" xmlns="http://www.w3.org/2000/svg" width="20" height="20" version="1.1" xmlns:serif="http://www.serif.com/" viewBox="0 0 20 20">
  <!-- Generator: Adobe Illustrator 29.7.1, SVG Export Plug-In . SVG Version: 2.1.1 Build 8)  -->
  <path d="M18.2,0C14.6,1.3,4.9,4.5.9,5.8.4,6,0,6.5,0,7.1c0,.6.3,1.1.8,1.3l7.5,3.3,3.3,7.5c.2.5.8.8,1.3.8.6,0,1.1-.4,1.2-.9,1.3-3.9,4.6-13.7,5.7-17.2.2-.5,0-1-.3-1.4-.4-.4-.9-.5-1.4-.3h0ZM18.2,2.7l-8.6,8.6,3.3,7.3,5.3-15.9ZM1.4,7.1l7.2,3.2L17,1.9,1.4,7.1Z" style="fill: #fff; fill-rule: evenodd;"/>
</svg>