<svg xmlns="http://www.w3.org/2000/svg" viewBox="0 0 50 50"><path d="M49.4 8.5 25.3 0h-.6L.6 8.5c-.4.1-.6.5-.6.9C0 14.3 1.6 38.8 24.6 50h.8C48.4 38.8 49.9 14.4 50 9.6c0-.5-.2-.8-.6-1Zm-1.2 1.4C48 14.8 46.1 37.6 25 48.1 3.8 37.6 1.9 14.9 1.8 9.9L25 1.8 48.3 10Z"/><path d="M13.4 24.8c0 6.1 4.7 11.1 10.7 11.5v2.5c0 .5.4.9.9.9s.9-.4.9-.9v-2.5c6-.4 10.7-5.5 10.7-11.5S26 7.9 25.5 7.6c-.3-.3-.8-.3-1.1 0-.5.4-11 9-11 17.2m12.5 6.5c2-.3 3.7-1.3 4.9-3 .3-.4.2-.9-.2-1.2-.2-.1-.4-.2-.7-.1-.2 0-.4.2-.5.4-.8 1.2-2 2-3.4 2.2v-5.7c1.3-.2 2.5-1 3.3-2.2.1-.2.2-.4.1-.6 0-.2-.2-.4-.4-.6-.2-.1-.4-.2-.6-.1-.2 0-.4.2-.6.4-.4.7-1.1 1.1-1.9 1.3v-5.3c0-.5-.4-.9-.9-.9s-.9.4-.9.9v5.3c-.8-.2-1.4-.7-1.9-1.3-.1-.2-.3-.3-.6-.4-.2 0-.5 0-.6.1-.2.1-.3.3-.4.6 0 .2 0 .5.1.7.8 1.1 2 1.9 3.3 2.2v5.7c-1.4-.2-2.6-1-3.4-2.2-.1-.2-.3-.3-.6-.4-.2 0-.5 0-.6.1-.2.1-.3.3-.4.5 0 .2 0 .5.1.7 1.1 1.7 2.9 2.7 4.8 3v3.3c-5.1-.4-9-4.7-9-9.8s7.9-13.7 9.9-15.4c2 1.7 9.9 9 9.9 15.4s-3.9 9.4-9 9.8v-3.3Z"/></svg>