<svg xmlns="http://www.w3.org/2000/svg" viewBox="0 0 50 50"><path d="M28.2 12.2c-.2-.2-.4-.4-.7-.4s-.5 0-.8.1c0 0-.7.4-1.6 1.1h3.2c0-.3 0-.6-.1-.8M40 6.5c-.1 0-2.9-1.1-6.5-1.7-5-.8-9.1-.4-12.1 1.3-2.7 1.4-4.5 3.8-5.4 6.9 0 .2-.1.5-.2.7-.1.5-.2.9-.2 1.4-.2 1.8.2 3.6 1 5.2 0 .1.1.2.2.3-1.6 1.7-2.8 3.5-3.7 5.1-.1.2-.2.5-.1.8 0 .3.2.5.5.6.4.2.9.2 1.3-.2l.3-.3c.8-1.4 1.8-2.9 3.1-4.3.9 1.1 2.1 1.9 3.3 2.4 2 .9 4.3.9 6.3 0 .9-.4 1.7-.8 2.4-1.4l.7-.6c1-1 1.7-2.1 2.2-3.4.4-1.2 1.1-2.7 1.9-4.3l1.2-2.1c1.2-1.8 2.6-3.5 4.2-4.7.3-.2.5-.6.4-1 0-.4-.3-.7-.7-.8ZM33.6 13c-.4.7-.8 1.4-1.1 2.1-.7 1.3-1.2 2.6-1.5 3.5-.7 1.9-2.2 3.5-4.1 4.2-1.5.6-3.2.6-4.7 0-1.1-.4-2-1.1-2.7-2 2.3-2.4 4.8-4.4 6.5-5.7 1.2-.9 2-1.5 2.1-1.5.2-.1.4-.4.4-.6 0-.3 0-.6-.1-.8-.2-.2-.4-.4-.7-.4s-.5 0-.8.1c0 0-.7.4-1.6 1.1-.7.5-1.7 1.2-2.7 2.1-1.3 1.1-2.8 2.4-4.3 3.9q-.75-1.8-.6-3.9c0-.3 0-.6.2-.9l.3-1.2c.5-1.4 1.1-2.5 2-3.5h.1c.6-.7 1.3-1.2 2-1.6 4.8-2.5 11.8-1 15.2 0-1.6 1.5-2.9 3.3-3.9 5.1m-5.4-.8c-.2-.2-.4-.4-.7-.4s-.5 0-.8.1c0 0-.7.4-1.6 1.1-.7.5-1.7 1.2-2.7 2.1h3.4c1.2-.9 2-1.5 2.1-1.5.2-.1.4-.4.4-.6 0-.3 0-.6-.1-.8"/><path d="M49.7 13.3c-.2-.2-.5-.3-.8-.3H33.5c-.4.7-.8 1.4-1.1 2.1h15.3c-.3 1.5-.9 4.6-2.3 8-.9 2.2-2.2 4.8-4.1 7.3s-4.3 4.8-7.5 6.4H16.1c-6.3-3.3-9.7-9.2-11.5-13.7-1.4-3.4-2.1-6.5-2.3-8h15.4c0-.3 0-.6.2-.9l.3-1.2H1c-.3 0-.6.1-.8.4-.2.2-.3.5-.3.8 0 .8.6 4.8 2.6 9.7C3.8 27 5.3 29.7 7.1 32c2.2 2.7 4.7 4.9 7.6 6.5v6.1c0 .6.5 1.1 1.1 1.1h18.3c.6 0 1-.5 1-1.1v-6.1c2.9-1.6 5.4-3.7 7.6-6.5 1.8-2.3 3.4-5.1 4.6-8.1 2.1-5.2 2.6-9.5 2.6-9.7 0-.3 0-.6-.3-.8ZM33.1 43.5H16.9v-4.7h16.2z"/></svg>