<svg xmlns="http://www.w3.org/2000/svg" viewBox="0 0 50 50"><path fill="#010101" fill-rule="evenodd" d="M9.6 2.2c-1.8 0-3.3 1.5-3.3 3.3v29.1c0 1.8 1.5 3.3 3.3 3.3H22l9.8-17c1.2-2.1 3.9-2.8 6-1.6s2.8 3.9 1.6 6l-7.3 12.6h8.2c1.8 0 3.3-1.5 3.3-3.3V5.5c0-1.8-1.5-3.3-3.3-3.3zM30.9 40h9.5c3 0 5.5-2.5 5.5-5.5v-29c0-3-2.5-5.5-5.5-5.5H9.6c-3 0-5.5 2.5-5.5 5.5v29.1c0 3 2.5 5.5 5.5 5.5h11.1l-2.1 3.7c-.2.4-.3.8-.2 1.2l.9 3.8c.2.9 1.2 1.4 2.1 1.2l3.8-1.1c.4-.1.8-.4 1-.8l4.6-8.1ZM13.5 10.4c0-.6.5-1.1 1.1-1.1h20.3c.6 0 1.1.5 1.1 1.1s-.5 1.1-1.1 1.1H14.6c-.6 0-1.1-.5-1.1-1.1m0 9.3c0-.6.5-1.1 1.1-1.1h11c.6 0 1.1.5 1.1 1.1s-.5 1.1-1.1 1.1h-11c-.6 0-1.1-.5-1.1-1.1m1.1 8.8c-.6 0-1.1.5-1.1 1.1s.5 1.1 1.1 1.1h6.6c.6 0 1.1-.5 1.1-1.1s-.5-1.1-1.1-1.1zm22.1-7.3c1 .6 1.4 1.9.8 3L24.4 46.8l-3 .9-.8-3.1L33.7 22c.6-1 1.9-1.4 3-.8"/></svg>