<svg xmlns="http://www.w3.org/2000/svg" viewBox="0 0 100 18"><path fill="#f9a606" d="m8.9.5 3 5.4L17.8 7l-4.1 4.3.7 6.2-5.5-2.7-5.4 2.7.7-6.2L0 7l6-1.1zm20.5 0 3 5.4 6 1.1-4.2 4.3.7 6.2-5.5-2.7-5.5 2.7.8-6.2L20.5 7l6-1.1zm20.7 0 2.8 5.4L59 7l-4.3 4.3.8 6.2-5.4-2.7-5.6 2.7.8-6.2L41 7l6.1-1.1zm20.5 0 1.5 5.9L75.4 8l-2 3.2 2.7 6.3-5.5-2.7-5.6 2.7.7-6.2-4-4.3 5.9-1.1z"/><path fill="#ddd" d="M70.6.5v14.3l5.5 2.7-.9-6.2L79.4 7l-6-1.1zM100 7l-5.9-1.1-3-5.4-2.8 5.4L82.2 7l4.3 4.3-.8 6.2 5.4-2.7 5.6 2.7-.8-6.2z"/></svg>