<svg xmlns="http://www.w3.org/2000/svg" viewBox="0 0 50 50"><path fill="#fff" d="M25 0C11.2 0 0 11.2 0 25s11.2 25 25 25 25-11.2 25-25S38.8 0 25 0m13.8 22c-1 0-1.8-.1-2.8-.3-1.6-.4-3-1-4.3-1.9 0 0-.2-.1-.2 0-.1 0 0 .2 0 .2v10.8c0 2.5-.8 4.8-2.5 6.7-1.8 2-4 3.2-6.6 3.5-2 .2-4-.2-5.8-1-.3-.2-.6-.3-.8-.5-.1 0-.2-.2-.2-.2-.2 0-.4-.2-.6-.4-1.6-1.3-2.8-2.9-3.4-4.9-.2-.7-.4-1.4-.5-2.2v-1.6c0-1.2.3-2.4.8-3.5.5-1.2 1.2-2.2 2.2-3.1 1-1 2.3-1.8 3.7-2.3.8-.3 1.8-.5 2.7-.5h2c.1 0 .2 0 .2.2v5.4c0 .2 0 .2-.2.2-.3-.1-.8-.2-1.1-.2-.5 0-1.1 0-1.7.2-1.8.7-2.8 2-3.1 3.8-.2 1.9.5 3.4 2 4.4.2 0 .3.1.4.2s0 0 .1.2c.4.1.7.2 1.1.3 1.2.2 2.3 0 3.4-.6 1.2-.8 1.9-1.9 2.2-3.2V9.2c0-.3 0-.3.3-.3h5.1q.1 0 .1.1c0 .4.2 1.3.2 1.4.7 3.6 5 5.8 6.2 6h1.1c.3 0 .2 0 .2.2v5c0 1.2 0 .3-.3.3Z"/></svg>