<svg xmlns="http://www.w3.org/2000/svg" viewBox="0 0 50 50"><path fill="none" stroke="#055941" stroke-miterlimit="10" d="M25 2.5C5 2.5-5 27 9.1 40.9c8.1 8.7 23.7 8.7 31.8 0C55 27.1 45 2.5 25 2.5Z"/><path fill="none" stroke="#055941" stroke-miterlimit="10" d="M37.9 38c-6.5 7.1-19.3 7.1-25.8 0C.6 26.8 8.8 6.7 25 6.8c16.2 0 24.4 20 12.9 31.2Z"/><path fill="none" stroke="#055941" stroke-miterlimit="10" d="M27.8 34.3c.2.8-.3 1.8-1.2 1.9h-.7c-2-1.1-3.6-2.9-5.2-4.7-.5-.6-4.6-6.1-2.5-6 2.4 2.8 5.1 5.9 8.8 7.9.4.2.6.5.7.9Z"/><path fill="none" stroke="#055941" stroke-miterlimit="10" d="m25.8 32.6.7-.7c.1-.2.2-.4.3-.5 1.7-3.8-1.1-8.2-4-10.8-2-1.9-3.4-3.8-3.9-6.6-.5-.6-1.7.1-2.1.5-4 3.9-5.9 10.5-3.3 15.6 1.8 3.5 6.1 7 9.7 5l.4-.4"/><path fill="none" stroke="#055941" stroke-miterlimit="10" d="M25.3 22.9c.1-.2.2-.4.4-.6 2.5-3.5 7.9-4.8 11.7-3 .3.2.6.6.1.9-3.5 2.7-2.2 9.3-6.8 11-1.1.5-2.4.4-3.7 0"/><path fill="none" stroke="#055941" stroke-linecap="round" stroke-miterlimit="10" d="M27.1 27s0-3.2 3.7-4"/></svg>