<svg xmlns="http://www.w3.org/2000/svg" viewBox="0 0 50 50"><path fill-rule="evenodd" d="M42.6 7.3C38 2.6 31.7 0 25.1 0 11.4 0 .3 11.1.3 24.8c0 4.4 1.1 8.6 3.3 12.4L.1 50l13.1-3.4c3.6 2 7.7 3 11.8 3 13.7 0 24.8-11.1 24.8-24.8 0-6.6-2.6-12.8-7.3-17.5ZM25.1 45.4c-3.7 0-7.3-1-10.5-2.9l-.8-.4-7.8 2 2.1-7.6-.5-.8c-2.1-3.3-3.2-7.1-3.1-11 0-11.4 9.2-20.6 20.6-20.6 5.5 0 10.7 2.1 14.6 6s6 9.1 6 14.6c0 11.4-9.2 20.6-20.6 20.6ZM36.4 30c-.6-.3-3.7-1.8-4.2-2-.6-.2-1-.3-1.4.3s-1.6 2-2 2.4-.7.5-1.3.2-2.6-1-5-3.1c-1.8-1.6-3.1-3.7-3.4-4.3-.4-.6 0-1 .3-1.3s.6-.7.9-1.1.4-.6.6-1 .1-.8 0-1.1c-.2-.3-1.4-3.4-1.9-4.6s-1-1-1.4-1.1h-1.2c-.4 0-1.1.2-1.7.8s-2.2 2.1-2.2 5.2 2.2 6 2.5 6.4 4.4 6.7 10.6 9.3c1.5.6 2.6 1 3.5 1.3 1.5.5 2.8.4 3.9.2 1.2-.2 3.7-1.5 4.2-2.9s.5-2.7.4-2.9c-.2-.3-.6-.4-1.2-.7"/></svg>